{
  "accessors": [
    {
      "bufferView": 2,
      "componentType": 5126,
      "count": 50161,
      "max": [
        0.20763052999973297,
        0.1573067009449005,
        0.29911381006240845
      ],
      "min": [
        -0.2083773910999298,
        -0.1588171273469925,
        -0.3038499355316162
      ],
      "type": "VEC3"
    },
    {
      "bufferView": 2,
      "byteOffset": 601932,
      "componentType": 5126,
      "count": 50161,
      "max": [
        0.9999858140945435,
        0.9997271299362183,
        0.9999914169311523
      ],
      "min": [
        -0.9999553561210632,
        -0.9999656081199646,
        -0.9998384714126587
      ],
      "type": "VEC3"
    },
    {
      "bufferView": 3,
      "componentType": 5126,
      "count": 50161,
      "max": [
        0.9999498724937439,
        0.9999995231628418,
        0.9999960660934448,
        1.0
      ],
      "min": [
        -0.9999920725822449,
        -0.999953031539917,
        -0.9999833703041077,
        1.0
      ],
      "type": "VEC4"
    },
    {
      "bufferView": 1,
      "componentType": 5126,
      "count": 50161,
      "max": [
        0.9973666071891785,
        0.9999672174453735
      ],
      "min": [
        8.71275260578841e-05,
        9.533600859867875e-06
      ],
      "type": "VEC2"
    },
    {
      "bufferView": 1,
      "byteOffset": 401288,
      "componentType": 5126,
      "count": 50161,
      "max": [
        0.9973666071891785,
        0.9999672174453735
      ],
      "min": [
        8.71275260578841e-05,
        9.533600859867875e-06
      ],
      "type": "VEC2"
    },
    {
      "bufferView": 0,
      "componentType": 5125,
      "count": 274581,
      "type": "SCALAR"
    }
  ],
  "asset": {
    "extras": {
      "author": "Kai Christmann (https://sketchfab.com/kai_am_rhein)",
      "license": "CC-BY-4.0 (http://creativecommons.org/licenses/by/4.0/)",
      "source": "https://sketchfab.com/3d-models/toy-grizzly-bear-dc589df312e74ed1942ba3909a43b386",
      "title": "Toy Grizzly bear"
    },
    "generator": "Sketchfab-14.41.0",
    "version": "2.0"
  },
  "bufferViews": [
    {
      "buffer": 0,
      "byteLength": 1098324,
      "name": "floatBufferViews",
      "target": 34963
    },
    {
      "buffer": 0,
      "byteLength": 802576,
      "byteOffset": 1098324,
      "byteStride": 8,
      "name": "floatBufferViews",
      "target": 34962
    },
    {
      "buffer": 0,
      "byteLength": 1203864,
      "byteOffset": 1900900,
      "byteStride": 12,
      "name": "floatBufferViews",
      "target": 34962
    },
    {
      "buffer": 0,
      "byteLength": 802576,
      "byteOffset": 3104764,
      "byteStride": 16,
      "name": "floatBufferViews",
      "target": 34962
    }
  ],
  "buffers": [
    {
      "byteLength": 3907340,
      "uri": "scene.bin"
    }
  ],
  "images": [
    {
      "uri": "textures/material_baseColor.jpeg"
    },
    {
      "uri": "textures/material_normal.jpeg"
    }
  ],
  "materials": [
    {
      "doubleSided": true,
      "name": "material",
      "normalTexture": {
        "index": 1
      },
      "pbrMetallicRoughness": {
        "baseColorTexture": {
          "index": 0
        },
        "metallicFactor": 0.0,
        "roughnessFactor": 0.5
      }
    }
  ],
  "meshes": [
    {
      "name": "Object_0",
      "primitives": [
        {
          "attributes": {
            "NORMAL": 1,
            "POSITION": 0,
            "TANGENT": 2,
            "TEXCOORD_0": 3,
            "TEXCOORD_1": 4
          },
          "indices": 5,
          "material": 0,
          "mode": 4
        }
      ]
    }
  ],
  "nodes": [
    {
      "children": [
        1
      ],
      "matrix": [
        1.8782116174697876,
        0.0,
        0.0,
        0.0,
        0.0,
        4.17046756566683e-16,
        -1.8782116174697876,
        0.0,
        0.0,
        1.8782116174697876,
        4.17046756566683e-16,
        0.0,
        0.0,
        0.0,
        0.0,
        1.0
      ],
      "name": "Sketchfab_model"
    },
    {
      "children": [
        2
      ],
      "name": "root"
    },
    {
      "children": [
        3
      ],
      "matrix": [
        1.0,
        0.0,
        0.0,
        0.0,
        0.0,
        2.220446049250313e-16,
        1.0,
        0.0,
        0.0,
        -1.0,
        2.220446049250313e-16,
        0.0,
        0.0,
        0.0,
        0.0,
        1.0
      ],
      "name": "GLTF_SceneRootNode"
    },
    {
      "children": [
        4
      ],
      "matrix": [
        1.9999998807907104,
        0.0,
        0.0,
        0.0,
        0.0,
        -3.37174793862971e-07,
        1.9999999999999716,
        0.0,
        0.0,
        -1.9999999999999716,
        -3.37174793862971e-07,
        0.0,
        0.0,
        0.0,
        0.0,
        1.0
      ],
      "name": "baked_mesh_5"
    },
    {
      "children": [
        5
      ],
      "name": "Geom_3"
    },
    {
      "children": [
        6
      ],
      "name": "g0_2"
    },
    {
      "mesh": 0,
      "name": "Object_6"
    }
  ],
  "samplers": [
    {
      "magFilter": 9729,
      "minFilter": 9987,
      "wrapS": 10497,
      "wrapT": 10497
    }
  ],
  "scene": 0,
  "scenes": [
    {
      "name": "Sketchfab_Scene",
      "nodes": [
        0
      ]
    }
  ],
  "textures": [
    {
      "sampler": 0,
      "source": 0
    },
    {
      "sampler": 0,
      "source": 1
    }
  ]
}
